<svg width="26" height="26" viewBox="0 0 26 26" fill="none" xmlns="http://www.w3.org/2000/svg">
<path d="M13 6.53115C14.125 6.53115 15.1938 6.86865 16.2062 7.43115C17.2188 7.99365 18.0062 8.78115 18.5688 9.79365C19.1312 10.8062 19.4688 11.8749 19.4688 12.9999C19.4688 14.1811 19.1312 15.2499 18.5688 16.2624C18.0062 17.2749 17.2188 18.0624 16.2062 18.6249C15.1938 19.1874 14.125 19.4687 13 19.4687C11.8188 19.4687 10.75 19.1874 9.7375 18.6249C8.725 18.0624 7.9375 17.2749 7.375 16.2624C6.8125 15.2499 6.53125 14.1811 6.53125 12.9999C6.53125 11.8749 6.8125 10.8062 7.375 9.79365C7.9375 8.78115 8.725 7.99365 9.7375 7.43115C10.75 6.86865 11.8188 6.53115 13 6.53115ZM13 17.2187C14.125 17.2187 15.1375 16.8249 15.9812 15.9811C16.7688 15.1937 17.2188 14.1811 17.2188 12.9999C17.2188 11.8749 16.7688 10.8624 15.9812 10.0187C15.1375 9.23115 14.125 8.78115 13 8.78115C11.8188 8.78115 10.8063 9.23115 10.0188 10.0187C9.175 10.8624 8.78125 11.8749 8.78125 12.9999C8.78125 14.1811 9.175 15.1937 10.0188 15.9811C10.8063 16.8249 11.8188 17.2187 13 17.2187ZM21.2688 6.2499C21.2688 5.85615 21.1 5.51865 20.8188 5.18115C20.4812 4.8999 20.1438 4.73115 19.75 4.73115C19.3 4.73115 18.9625 4.8999 18.6812 5.18115C18.3438 5.51865 18.2312 5.85615 18.2312 6.2499C18.2312 6.6999 18.3438 7.0374 18.6812 7.31865C18.9625 7.65615 19.3 7.76865 19.75 7.76865C20.1438 7.76865 20.4812 7.65615 20.7625 7.31865C21.0438 7.0374 21.2125 6.6999 21.2688 6.2499ZM25.5438 7.76865C25.5438 8.8374 25.6 10.5812 25.6 12.9999C25.6 15.4749 25.5438 17.2187 25.4875 18.2874C25.4312 19.3561 25.2625 20.2561 25.0375 21.0437C24.7 21.9999 24.1375 22.8437 23.4625 23.5187C22.7875 24.1937 21.9438 24.6999 21.0438 25.0374C20.2562 25.3187 19.3 25.4874 18.2312 25.5437C17.1625 25.5999 15.4188 25.5999 13 25.5999C10.525 25.5999 8.78125 25.5999 7.7125 25.5437C6.64375 25.4874 5.74375 25.3187 4.95625 24.9811C4 24.6999 3.15625 24.1937 2.48125 23.5187C1.80625 22.8437 1.3 21.9999 0.962502 21.0437C0.681252 20.2561 0.512502 19.3561 0.456252 18.2874C0.400002 17.2187 0.400002 15.4749 0.400002 12.9999C0.400002 10.5812 0.400002 8.8374 0.456252 7.76865C0.512502 6.6999 0.681252 5.74365 0.962502 4.95615C1.3 4.05615 1.80625 3.2124 2.48125 2.5374C3.15625 1.8624 4 1.2999 4.95625 0.962402C5.74375 0.737402 6.64375 0.568652 7.7125 0.512402C8.78125 0.456152 10.525 0.399902 13 0.399902C15.4188 0.399902 17.1625 0.456152 18.2312 0.512402C19.3 0.568652 20.2562 0.737402 21.0438 0.962402C21.9438 1.2999 22.7875 1.8624 23.4625 2.5374C24.1375 3.2124 24.7 4.05615 25.0375 4.95615C25.2625 5.74365 25.4312 6.6999 25.5438 7.76865ZM22.8438 20.4249C23.0688 19.8061 23.1812 18.7937 23.2938 17.3874C23.2938 16.5999 23.35 15.4187 23.35 13.8999V12.0999C23.35 10.5812 23.2938 9.3999 23.2938 8.6124C23.1812 7.20615 23.0688 6.19365 22.8438 5.5749C22.3938 4.4499 21.55 3.60615 20.425 3.15615C19.8062 2.93115 18.7938 2.81865 17.3875 2.70615C16.5438 2.70615 15.3625 2.6499 13.9 2.6499H12.1C10.5813 2.6499 9.4 2.70615 8.6125 2.70615C7.20625 2.81865 6.19375 2.93115 5.575 3.15615C4.39375 3.60615 3.60625 4.4499 3.15625 5.5749C2.93125 6.19365 2.7625 7.20615 2.70625 8.6124C2.65 9.45615 2.65 10.6374 2.65 12.0999V13.8999C2.65 15.4187 2.65 16.5999 2.70625 17.3874C2.7625 18.7937 2.93125 19.8061 3.15625 20.4249C3.60625 21.6061 4.45 22.3937 5.575 22.8437C6.19375 23.0687 7.20625 23.2374 8.6125 23.2937C9.4 23.3499 10.5813 23.3499 12.1 23.3499H13.9C15.4188 23.3499 16.6 23.3499 17.3875 23.2937C18.7938 23.2374 19.8062 23.0687 20.425 22.8437C21.55 22.3937 22.3938 21.5499 22.8438 20.4249Z" fill="black"/>
</svg>
