<svg width="26" height="20" viewBox="0 0 26 20" fill="none" xmlns="http://www.w3.org/2000/svg">
<path d="M22.9914 4.95C23.9759 4.23607 24.8616 3.37932 25.6 2.33221C24.6156 2.76057 23.6313 3.04616 22.6469 3.14134C23.7296 2.475 24.5171 1.57068 24.911 0.380772C23.8774 0.95193 22.7945 1.38029 21.6134 1.57068C21.1211 1.09471 20.5305 0.713934 19.8906 0.428364C19.2509 0.142794 18.5616 0 17.8235 0C16.8884 0 16.0515 0.237978 15.264 0.666342C14.4765 1.14232 13.8366 1.76107 13.3938 2.52259C12.9016 3.28414 12.7047 4.14086 12.7047 4.99759C12.7047 5.37836 12.7047 5.75914 12.8031 6.13991C10.6867 6.04471 8.71796 5.56875 6.84766 4.61682C4.97735 3.7125 3.45156 2.475 2.17189 0.90432C1.67969 1.71346 1.4336 2.57018 1.4336 3.42693C1.4336 4.28366 1.63046 5.09279 2.07344 5.80673C2.46719 6.56827 3.05781 7.13943 3.74689 7.61539C2.91016 7.61539 2.12266 7.37741 1.4336 6.94904V7.04423C1.4336 8.23414 1.82735 9.28134 2.61485 10.1857C3.40235 11.1375 4.38671 11.7086 5.56796 11.9466C5.07579 12.0418 4.63281 12.0893 4.18985 12.0893C3.89454 12.0893 3.55 12.0893 3.25469 12.0418C3.55 13.0414 4.14064 13.8505 5.02656 14.5168C5.9125 15.1832 6.89689 15.4688 8.07814 15.4688C6.1586 16.8966 3.99296 17.6107 1.63046 17.6107C1.13829 17.6107 0.74454 17.6107 0.400002 17.563C2.7625 19.0861 5.42031 19.8 8.32421 19.8C11.3266 19.8 13.9844 19.0861 16.3469 17.563C18.4634 16.2302 20.1366 14.4693 21.318 12.1846C22.45 10.0904 23.0406 7.85336 23.0406 5.56875C23.0406 5.28318 22.9914 5.09279 22.9914 4.95Z" fill="black"/>
</svg>
